<?xml version="1.0" encoding="UTF-8"?>
<svg xmlns="http://www.w3.org/2000/svg" width="120" height="120" fill="none" viewBox="0 0 24 24" aria-labelledby="github-title" style="display:inline; fill: rgb(99, 99, 105); height: 30px; width: 30px;">
  <title id="github-title">GitHub</title>
  <path fill="inherit" d="M12 .297a12 12 0 0 0-3.79 23.39c.6.113.82-.258.82-.577l-.015-2.04c-3.338.726-4.042-1.416-4.042-1.416a3.185 3.185 0 0 0-1.338-1.758c-1.093-.745.084-.729.084-.729a2.52 2.52 0 0 1 1.84 1.234 2.56 2.56 0 0 0 3.495.998 2.56 2.56 0 0 1 .765-1.613c-2.665-.3-5.466-1.332-5.466-5.93A4.64 4.64 0 0 1 5.59 8.65a4.31 4.31 0 0 1 .117-3.176s1.008-.323 3.3 1.23a11.39 11.39 0 0 1 6 0c2.28-1.553 3.288-1.23 3.288-1.23a4.31 4.31 0 0 1 .12 3.176 4.64 4.64 0 0 1 1.236 3.206c0 4.61-2.805 5.625-5.475 5.92a2.87 2.87 0 0 1 .81 2.22l-.015 3.293c0 .323.21.694.825.576A12 12 0 0 0 12 .297"/>
</svg>
