<?xml version="1.0" encoding="UTF-8"?>
<svg xmlns="http://www.w3.org/2000/svg" width="120" height="120" fill="none" viewBox="0 0 120 120" aria-labelledby="3" style="transition: none !important; animation-duration: 0s !important; animation-delay: -0.0001s; animation-play-state: paused; display: inline; fill: rgb(99, 99, 105); height: 30px; transition-property: none; visibility: visible; width: 30px"><title id="3" style="transition: none !important; animation-duration: 0s !important; animation-delay: -0.0001s; animation-play-state: paused; fill: rgb(99, 99, 105); transform-origin: 0px 0px; transition-property: none; visibility: visible">Layers</title><path d="M18 66.118l.21-31.499c.037-5.702 4.024-10.586 9.53-11.677l30.415-6.03c7.309-1.448 14.091 4.27 14.041 11.84l-.21 31.498c-.037 5.702-4.023 10.587-9.529 11.678l-30.415 6.029c-7.31 1.449-14.092-4.27-14.042-11.84z" fill="inherit" fill-opacity="0.2" style="transition: none !important; animation-duration: 0s !important; animation-delay: -0.0001s; animation-play-state: paused; fill: rgb(99, 99, 105); fill-opacity: 0.2; transform-origin: 0px 0px; transition-property: none; visibility: visible"></path><path d="M32.902 78.683l.21-31.499c.038-5.701 4.024-10.586 9.53-11.677l30.415-6.03c7.31-1.448 14.092 4.271 14.041 11.84l-.209 31.499c-.038 5.702-4.024 10.586-9.53 11.677l-30.415 6.03c-7.31 1.448-14.092-4.271-14.042-11.84z" fill="inherit" fill-opacity="0.5" style="transition: none !important; animation-duration: 0s !important; animation-delay: -0.0001s; animation-play-state: paused; fill: rgb(99, 99, 105); fill-opacity: 0.5; transform-origin: 0px 0px; transition-property: none; visibility: visible"></path><path d="M47.804 91.248l.21-31.499c.037-5.702 4.023-10.586 9.529-11.677l30.415-6.03c7.31-1.448 14.092 4.271 14.042 11.84l-.209 31.499c-.039 5.701-4.025 10.586-9.53 11.677l-30.416 6.029c-7.309 1.449-14.091-4.27-14.041-11.84z" fill="inherit" fill-opacity="0.8" style="transition: none !important; animation-duration: 0s !important; animation-delay: -0.0001s; animation-play-state: paused; fill: rgb(99, 99, 105); fill-opacity: 0.8; transform-origin: 0px 0px; transition-property: none; visibility: visible"></path></svg>