<?xml version="1.0" encoding="UTF-8"?>
<svg xmlns="http://www.w3.org/2000/svg" width="120" height="120" fill="none" viewBox="0 0 24 24" aria-labelledby="email-title" style="display:inline; fill: rgb(99, 99, 105); height: 30px; width: 30px;">
  <title id="email-title">Email</title>
  <path fill="inherit" d="M2.25 6.75A2.25 2.25 0 0 1 4.5 4.5h15a2.25 2.25 0 0 1 2.25 2.25v10.5A2.25 2.25 0 0 1 19.5 19.5h-15a2.25 2.25 0 0 1-2.25-2.25V6.75Zm1.92-.24 7.35 5.14c.29.2.67.2.96 0l7.35-5.14a.75.75 0 0 0-.43-.14h-15c-.16 0-.31.05-.43.14Zm16.08 1.43-7.17 5.02a2.31 2.31 0 0 1-2.66 0L3.25 7.94v9.31c0 .41.34.75.75.75h15.5c.41 0 .75-.34.75-.75V7.94Z"/>
</svg>
