<?xml version="1.0" encoding="UTF-8"?>
<svg xmlns="http://www.w3.org/2000/svg" width="120" fill="inherit" viewBox="0 0 120 120" style="transition: none !important; animation-duration: 0s !important; animation-delay: -0.0001s; animation-play-state: paused; display: inline; fill: rgb(99, 99, 105); height: 30px; transition-property: none; visibility: visible; width: 30px"><title id="3" style="transition: none !important; animation-duration: 0s !important; animation-delay: -0.0001s; animation-play-state: paused; fill: rgb(99, 99, 105); transform-origin: 0px 0px; transition-property: none; visibility: visible">Threads</title><path fill="inherit" d="M82.2941 56.5672C81.8892 56.3731 81.4779 56.1863 81.0613 56.0075C80.3357 42.6385 73.0307 34.9847 60.7646 34.9064C60.709 34.9061 60.6538 34.9061 60.5982 34.9061C53.2615 34.9061 47.1597 38.0377 43.404 43.7364L50.15 48.364C52.9556 44.1073 57.3587 43.1999 60.6014 43.1999C60.6389 43.1999 60.6765 43.1999 60.7135 43.2002C64.7523 43.2259 67.8 44.4002 69.7725 46.6902C71.208 48.3574 72.168 50.6612 72.6434 53.5687C69.0626 52.9601 65.19 52.773 61.0501 53.0104C49.3881 53.6821 41.8908 60.4837 42.3943 69.9346C42.6498 74.7286 45.0381 78.8529 49.1189 81.5471C52.5692 83.8246 57.013 84.9384 61.6314 84.6863C67.7304 84.3519 72.5151 82.0249 75.8531 77.7699C78.3882 74.5387 79.9916 70.3513 80.6995 65.075C83.6062 66.8292 85.7603 69.1376 86.95 71.9125C88.973 76.6297 89.091 84.3812 82.766 90.7008C77.2244 96.237 70.5632 98.632 60.4961 98.706C49.3291 98.6232 40.8835 95.0419 35.3925 88.0615C30.2506 81.525 27.5933 72.0839 27.4941 60C27.5933 47.916 30.2506 38.4748 35.3925 31.9384C40.8835 24.958 49.3289 21.3768 60.496 21.2938C71.744 21.3774 80.3367 24.9759 86.0379 31.99C88.8334 35.4296 90.9411 39.7551 92.3305 44.7986L100.236 42.6894C98.5517 36.4815 95.9016 31.1321 92.2953 26.6956C84.9863 17.7033 74.2967 13.0955 60.5235 13H60.4684C46.7232 13.0952 36.1533 17.7205 29.0525 26.7472C22.7338 34.7798 19.4744 45.9566 19.3648 59.967L19.3645 60L19.3648 60.033C19.4744 74.0432 22.7338 85.2204 29.0525 93.253C36.1533 102.279 46.7232 106.905 60.4684 107H60.5235C72.7438 106.915 81.3575 103.716 88.4535 96.6262C97.7375 87.3511 97.4579 75.7249 94.398 68.5878C92.2028 63.4697 88.0173 59.3127 82.2941 56.5672ZM61.1947 76.4045C56.0835 76.6923 50.7734 74.3982 50.5116 69.4842C50.3175 65.8407 53.1045 61.7752 61.5084 61.2909C62.4708 61.2354 63.4153 61.2083 64.343 61.2083C67.3956 61.2083 70.2513 61.5048 72.8476 62.0724C71.8792 74.1661 66.199 76.1298 61.1947 76.4045Z" style="transition: none !important; animation-duration: 0s !important; animation-delay: -0.0001s; animation-play-state: paused; fill: rgb(99, 99, 105); transform-origin: 0px 0px; transition-property: none; visibility: visible"></path></svg>