<?xml version="1.0" encoding="UTF-8"?>
<svg xmlns="http://www.w3.org/2000/svg" width="120" height="120" fill="none" viewBox="0 0 120 120" aria-labelledby="2" style="transition: none !important; animation-duration: 0s !important; animation-delay: -0.0001s; animation-play-state: paused; display: inline; fill: rgb(99, 99, 105); height: 30px; transition-property: none; visibility: visible; width: 30px"><title id="2" style="transition: none !important; animation-duration: 0s !important; animation-delay: -0.0001s; animation-play-state: paused; fill: rgb(99, 99, 105); transform-origin: 0px 0px; transition-property: none; visibility: visible">LinkedIn</title><path fill="inherit" d="M39.905 95.093V47.54H25.113v47.554zm-7.476-53.916c4.772 0 8.589-3.976 8.589-8.748 0-4.612-3.817-8.429-8.589-8.429C27.817 24 24 27.817 24 32.43c0 4.77 3.817 8.747 8.43 8.747zm62.664 53.916h.16V69.01c0-12.724-2.863-22.585-17.814-22.585-7.157 0-11.928 3.977-13.996 7.635h-.159v-6.521H49.13v47.554h14.792V71.555c0-6.203 1.113-12.088 8.747-12.088s7.793 6.998 7.793 12.565v23.061z" style="transition: none !important; animation-duration: 0s !important; animation-delay: -0.0001s; animation-play-state: paused; fill: rgb(99, 99, 105); transform-origin: 0px 0px; transition-property: none; visibility: visible"></path></svg>