<?xml version="1.0" encoding="UTF-8"?>
<svg xmlns="http://www.w3.org/2000/svg" width="120" height="120" fill="none" viewBox="0 0 120 120" aria-labelledby="3" style="transition: none !important; animation-duration: 0s !important; animation-delay: -0.0001s; animation-play-state: paused; display: inline; fill: rgb(99, 99, 105); height: 30px; transition-property: none; visibility: visible; width: 30px"><title id="3" style="transition: none !important; animation-duration: 0s !important; animation-delay: -0.0001s; animation-play-state: paused; fill: rgb(99, 99, 105); transform-origin: 0px 0px; transition-property: none; visibility: visible">Twitter</title><path fill="inherit" d="M93.002 44.016c3.18-2.386 6.044-5.248 8.27-8.588-2.863 1.272-6.202 2.226-9.542 2.544 3.499-2.067 6.043-5.248 7.316-9.224-3.181 1.908-6.84 3.34-10.497 4.135-3.181-3.34-7.475-5.249-12.247-5.249-9.225 0-16.7 7.475-16.7 16.7 0 1.272.16 2.545.478 3.817-13.837-.795-26.243-7.475-34.513-17.495-1.432 2.386-2.227 5.249-2.227 8.43 0 5.725 2.863 10.815 7.475 13.836-2.704-.159-5.407-.795-7.634-2.067v.159c0 8.111 5.726 14.791 13.36 16.382-1.273.318-2.863.636-4.294.636-1.114 0-2.068-.16-3.181-.318 2.067 6.68 8.27 11.451 15.586 11.61-5.726 4.453-12.883 7.157-20.676 7.157-1.431 0-2.704-.159-3.976-.318 7.316 4.771 16.064 7.475 25.606 7.475 30.696 0 47.396-25.288 47.396-47.395v-2.227z" style="transition: none !important; animation-duration: 0s !important; animation-delay: -0.0001s; animation-play-state: paused; fill: rgb(99, 99, 105); transform-origin: 0px 0px; transition-property: none; visibility: visible"></path></svg>